<svg width="29" height="199" viewBox="0 0 29 199" fill="none" xmlns="http://www.w3.org/2000/svg">
<path d="M4 199L17.1606 187.74L0.828481 181.972L4 199ZM26.5 101.5L28 101.51L26.5 101.5ZM4 1C2.59672 1.52991 2.59675 1.52998 2.59686 1.53029C2.59702 1.53069 2.59722 1.53123 2.59752 1.53204C2.59814 1.53367 2.5991 1.53622 2.6004 1.53967C2.603 1.54657 2.60697 1.55712 2.61228 1.57126C2.6229 1.59955 2.63891 1.64224 2.66012 1.69903C2.70254 1.8126 2.76578 1.98254 2.84845 2.20641C3.01378 2.65415 3.2568 3.31756 3.56634 4.17704C4.18542 5.89604 5.07048 8.39903 6.13216 11.5292C8.2558 17.7904 11.0847 26.5567 13.9049 36.5746C19.5565 56.6497 25.1303 81.6041 25 101.49L28 101.51C28.1331 81.1775 22.4569 55.8819 16.7927 35.7616C13.955 25.6818 11.1095 16.864 8.97319 10.5656C7.90491 7.41598 7.01363 4.89527 6.38887 3.16052C6.07648 2.29312 5.8307 1.62214 5.66271 1.16721C5.57872 0.939745 5.51417 0.766284 5.47046 0.649283C5.44861 0.590781 5.43197 0.546394 5.42072 0.516428C5.41509 0.501444 5.41081 0.490066 5.40789 0.482331C5.40644 0.478464 5.40532 0.475507 5.40455 0.473466C5.40417 0.472446 5.40385 0.471603 5.40366 0.471092C5.40343 0.470479 5.40328 0.470095 4 1ZM25 101.49C24.8197 129.018 13.5908 166.397 7.07365 185.791L9.91739 186.747C16.4264 167.377 27.8161 129.577 28 101.51L25 101.49Z" fill="#C0F4FF"/>
</svg>
