<svg width="28" height="199" viewBox="0 0 28 199" fill="none" xmlns="http://www.w3.org/2000/svg">
<path d="M24.5023 0L11.3417 11.2605L27.6738 17.0277L24.5023 0ZM2.00232 97.5L0.502352 97.4902L2.00232 97.5ZM24.5023 198C25.9056 197.47 25.9056 197.47 25.9055 197.47C25.9053 197.469 25.9051 197.469 25.9048 197.468C25.9042 197.466 25.9032 197.464 25.9019 197.46C25.8993 197.453 25.8954 197.443 25.89 197.429C25.8794 197.4 25.8634 197.358 25.8422 197.301C25.7998 197.187 25.7365 197.017 25.6539 196.794C25.4885 196.346 25.2455 195.682 24.936 194.823C24.3169 193.104 23.4318 190.601 22.3702 187.471C20.2465 181.21 17.4176 172.443 14.5974 162.425C8.94582 142.35 3.37203 117.396 3.50229 97.5098L0.502352 97.4902C0.369171 117.822 6.04538 143.118 11.7097 163.238C14.5473 173.318 17.3929 182.136 19.5291 188.434C20.5974 191.584 21.4887 194.105 22.1135 195.839C22.4258 196.707 22.6716 197.378 22.8396 197.833C22.9236 198.06 22.9882 198.234 23.0319 198.351C23.0537 198.409 23.0703 198.454 23.0816 198.484C23.0872 198.499 23.0915 198.51 23.0944 198.518C23.0959 198.522 23.097 198.524 23.0978 198.527C23.0982 198.528 23.0985 198.528 23.0987 198.529C23.0989 198.53 23.099 198.53 24.5023 198ZM3.50229 97.5098C3.6826 69.9817 14.9115 32.6032 21.4287 13.2086L18.5849 12.2531C12.0759 31.6233 0.686199 69.4228 0.502352 97.4902L3.50229 97.5098Z" fill="#FFC0F9"/>
</svg>
