<svg width="180" height="89" viewBox="0 0 180 89" fill="none" xmlns="http://www.w3.org/2000/svg">
<path d="M179.328 88.3084L174.905 71.5621L162.614 83.7654L179.328 88.3084ZM101.292 25.6748L101.953 24.3281L101.292 25.6748ZM1 2.26654C0.867454 3.76067 0.867534 3.76068 0.86786 3.76071C0.868294 3.76075 0.868863 3.7608 0.86973 3.76088C0.871464 3.76103 0.874171 3.76127 0.877846 3.7616C0.885195 3.76226 0.896416 3.76327 0.911464 3.76463C0.94156 3.76735 0.986963 3.77149 1.04732 3.77706C1.16804 3.78821 1.34858 3.8051 1.58613 3.82793C2.06124 3.87359 2.76434 3.94301 3.67293 4.03771C5.49017 4.22714 8.12909 4.51771 11.4096 4.92175C17.9716 5.72993 27.0962 6.99156 37.3443 8.80483C57.8808 12.4385 82.7779 18.2625 100.632 27.0215L101.953 24.3281C83.6987 15.3727 58.4497 9.49257 37.867 5.85072C27.5555 4.02623 18.3773 2.75723 11.7763 1.94424C8.47542 1.5377 5.81784 1.24504 3.98396 1.05388C3.06698 0.958299 2.35587 0.888085 1.87314 0.84169C1.63177 0.818493 1.44749 0.80125 1.32313 0.789767C1.26094 0.784026 1.21373 0.779725 1.18185 0.77684C1.16591 0.775397 1.1538 0.774309 1.14557 0.773571C1.14146 0.773202 1.13831 0.772921 1.13614 0.772728C1.13505 0.772631 1.13415 0.772551 1.13361 0.772502C1.13296 0.772444 1.13255 0.772408 1 2.26654ZM100.632 27.0215C125.346 39.1464 154.132 65.5026 168.767 79.8003L170.864 77.6543C156.246 63.3746 127.152 36.6905 101.953 24.3281L100.632 27.0215Z" fill="#FFF068"/>
</svg>
