<svg width="182" height="93" viewBox="0 0 182 93" fill="none" xmlns="http://www.w3.org/2000/svg">
<path d="M68.3595 5.41204C68.2138 5.39555 68.067 5.39031 67.9199 5.39636C65.5748 5.64101 63.2314 5.94494 60.8849 6.11626C59.4885 6.21836 58.0876 6.12578 56.6908 6.09274C56.3691 6.08572 56.0067 6.10663 55.7707 5.73472C55.8634 5.31711 56.1754 5.23019 56.4145 5.1311C57.5103 4.67817 58.6036 4.19262 59.7234 3.86472C60.9659 3.501 62.2325 3.24966 63.4954 3.03309C64.9838 2.77784 66.4802 2.6107 67.9726 2.40514C69.1555 2.24174 70.3369 2.07113 71.5208 1.9205C72.0674 1.85078 72.6179 1.82089 73.1654 1.77519C74.8836 1.63228 76.6024 1.49039 78.3219 1.3495C79.507 1.25247 80.6935 1.13167 81.8793 1.0713C82.8876 1.01967 83.8969 1.04554 84.9048 1.01919C85.2212 1.01015 85.5377 0.913878 85.8541 0.904832C87.1445 0.867147 88.434 0.849055 89.7247 0.81984C90.3193 0.806024 90.9136 0.77388 91.5075 0.767017C92.6752 0.753911 93.8434 0.811216 95.009 0.731743C96.4614 0.632969 97.8991 0.766149 99.3437 0.760788C99.7864 0.758514 100.198 0.866833 100.626 0.885409C101.069 0.904247 101.512 0.895021 101.956 0.891485C102.758 0.884868 103.561 0.861439 104.363 0.866073C104.637 0.867875 104.909 0.936925 105.182 0.964008C105.995 1.04159 106.811 1.21941 107.622 1.16021C108.857 1.07004 110.038 1.4186 111.252 1.44863C111.886 1.46441 112.521 1.43811 113.153 1.4678C113.426 1.49278 113.693 1.55602 113.951 1.65623C114.276 1.76779 114.589 1.89198 114.937 1.71052C115.037 1.68585 115.14 1.68938 115.237 1.72081C117.077 1.95421 118.911 2.27559 120.759 2.39599C122.101 2.48348 123.397 2.86713 124.742 2.91278C125.029 2.92306 125.329 3.05862 125.641 3.10532C126.932 3.29568 128.211 3.57755 129.498 3.8138C129.765 3.86274 130.051 3.81652 130.313 3.88455C132.019 4.32291 133.725 4.76532 135.423 5.23516C136.252 5.46507 137.065 5.76627 137.887 6.02361C138.885 6.33529 139.893 6.61561 140.886 6.94789C141.725 7.22812 142.549 7.57003 143.382 7.87352C144.121 8.14282 144.868 8.38899 145.607 8.65968C145.781 8.74044 145.951 8.8337 146.115 8.93896C146.209 8.98857 146.312 9.07724 146.402 9.05897C146.92 8.95801 147.341 9.19818 147.784 9.44772C148.196 9.67992 148.656 9.79636 149.089 9.98432C149.459 10.1443 149.815 10.3436 150.183 10.5063C150.861 10.8041 151.546 11.0872 152.227 11.3755C152.44 11.4649 152.657 11.5435 152.866 11.6451C153.65 12.0276 154.433 12.4101 155.21 12.8059C155.819 13.1159 156.425 13.4373 157.029 13.7701C157.345 13.944 157.645 14.1569 157.959 14.3389C158.535 14.6762 159.113 15.0081 159.693 15.3346C160.274 15.6612 160.91 15.8799 161.353 16.477C162.346 16.8107 163.066 17.7181 164.014 18.172C164.517 18.4127 164.919 18.9223 165.376 19.2959C166.004 19.8091 166.624 20.337 167.277 20.8037C168.353 21.5741 169.379 22.4137 170.286 23.4485C170.694 23.9032 171.123 24.3301 171.572 24.7273C171.793 24.9288 172.127 24.9878 172.3 25.2262C173.122 26.3586 174.155 27.2454 174.954 28.3907C175.573 29.2787 176.261 30.0982 176.85 31.0095C177.505 32.0501 178.115 33.1316 178.676 34.2497C179.041 34.9582 179.37 35.6937 179.659 36.4523C180.468 38.5554 180.769 39.6886 180.984 41.8973C181.082 42.907 181.202 43.912 181.082 44.9443C181.056 45.1695 181.219 45.4181 181.19 45.6414C181.119 46.0349 181.023 46.4228 180.905 46.802C180.843 46.9918 180.789 47.1851 180.745 47.3811C180.575 48.3967 180.432 49.418 180.242 50.4301C180.18 50.761 179.99 51.0596 179.887 51.3847C179.665 52.0962 179.488 52.8283 179.243 53.529C178.916 54.4669 178.538 55.3824 178.19 56.3109C178.064 56.6461 177.991 57.0124 177.838 57.3278C177.381 58.2754 176.913 59.2176 176.416 60.1384C176.095 60.7337 175.721 61.2895 175.365 61.8584C175.174 62.1639 174.954 62.4452 174.775 62.7591C174.151 63.8601 173.312 64.7281 172.54 65.6666C171.983 66.3445 171.431 67.027 170.873 67.7048C170.738 67.8687 170.593 68.0203 170.447 68.1731C170.011 68.6278 169.583 69.0961 169.133 69.5295C168.798 69.8517 168.425 70.1177 168.084 70.4307C167.699 70.7841 167.339 71.1766 166.955 71.5315C166.501 71.9532 166.042 72.3716 165.568 72.7588C164.882 73.3184 164.219 73.965 163.471 74.3561C162.853 74.6797 162.342 75.1627 161.772 75.5493C160.891 76.1467 160.015 76.7586 159.114 77.3046C158.468 77.6956 157.781 77.9779 157.119 78.329C156.735 78.5319 156.321 78.7075 156.002 79.0175C155.498 79.5083 154.872 79.5496 154.326 79.874C153.811 80.1808 153.249 80.3685 152.709 80.612C152.143 80.8668 151.545 81.0476 151.021 81.3984C150.43 81.7953 149.793 81.9874 149.181 82.2835C148.651 82.5394 148.132 82.9315 147.59 83.0116C147.119 83.0811 146.722 83.4036 146.256 83.4244C146.098 83.4311 145.938 83.5613 145.782 83.6427C145.691 83.7094 145.597 83.7678 145.499 83.8173C144.386 84.1712 143.269 84.5121 142.158 84.8705C141.915 84.9495 141.688 85.0992 141.449 85.1997C140.806 85.4685 140.14 85.5885 139.478 85.7455C138.921 85.876 138.37 86.0563 137.825 86.2514C136.827 86.604 135.812 86.8689 134.788 87.0438C134.183 87.1508 133.585 87.3317 132.985 87.4828C132.922 87.4984 132.858 87.5646 132.803 87.5558C131.967 87.4222 131.22 87.9949 130.408 88.0905C129.548 88.192 128.695 88.4379 127.835 88.5859C127.437 88.6551 127.032 88.6206 126.632 88.6712C126.343 88.7086 126.059 88.8224 125.771 88.881C125.061 89.0258 124.351 89.1691 123.64 89.2926C122.998 89.4039 122.355 89.5096 121.712 89.5842C120.931 89.6748 120.16 89.8423 119.369 89.8727C118.324 89.9133 117.279 90.217 116.231 90.346C115.268 90.4644 114.298 90.478 113.333 90.5879C112.921 90.6343 112.516 90.742 112.093 90.7676C111.055 90.8271 110.016 90.9936 108.978 91.1081C108.81 91.1263 108.638 91.0921 108.47 91.1046C108.093 91.1339 107.717 91.1828 107.341 91.2162C106.983 91.2475 106.623 91.273 106.266 91.2958C105.82 91.3244 105.374 91.3433 104.929 91.3777C104.187 91.4359 103.446 91.511 102.704 91.5651C102.322 91.5923 101.939 91.5884 101.557 91.5945C101.472 91.5965 101.382 91.5487 101.304 91.5739C100.253 91.9107 99.194 91.6388 98.1373 91.778C97.3217 91.8859 96.4971 91.8394 95.6759 91.8693C95.1915 91.8867 94.7063 91.9434 94.2224 91.9454C92.5655 91.9557 90.9075 91.9434 89.25 91.9578C89.0098 91.9597 88.7569 92.1305 88.5264 92.0968C88.2636 92.0521 87.9969 92.0371 87.7298 92.052C87.0988 92.097 86.465 91.9954 85.8317 91.9754C85.3896 91.9609 84.9451 91.9897 84.5032 91.9851C83.7155 91.9778 82.9237 92.008 82.1421 91.9339C81.5796 91.8795 81.04 91.7769 80.46 91.926C80.0762 92.0247 79.6591 91.9214 79.258 91.8875C78.1722 91.797 77.088 91.6926 76.0029 91.6064C75.8687 91.5959 75.6829 91.6052 75.5994 91.7016C75.4675 91.8532 75.4004 91.7783 75.2742 91.7378C74.953 91.6282 74.6237 91.5512 74.2896 91.5078C73.5203 91.4181 72.7486 91.3394 71.9745 91.2942C71.1546 91.2482 70.3309 91.2469 69.5082 91.2259C69.4446 91.237 69.3802 91.2328 69.3189 91.2137C68.7526 90.8493 68.1268 90.9976 67.5222 91.0061C67.1408 91.0255 66.7621 90.9641 66.404 90.8248C66.0403 90.6739 65.6125 90.7228 65.213 90.6848C64.3975 90.6084 63.5814 90.5487 62.7683 90.4514C61.9353 90.352 61.1082 90.2095 60.2761 90.1031C59.3789 89.9882 58.4501 90.0119 57.5902 89.7505C56.9421 89.5531 56.2634 89.6365 55.6226 89.3188C55.1279 89.0748 54.5039 89.1741 53.9376 89.122C53.7919 89.1089 53.6421 89.1235 53.4992 89.0953C52.4114 88.8835 51.3314 88.6107 50.2359 88.4699C49.6661 88.3964 49.1371 88.2077 48.5902 88.065C47.9585 87.9003 47.3125 87.8029 46.6731 87.6768C46.1109 87.5661 45.5456 87.4734 44.9868 87.342C44.1296 87.1414 43.2841 86.8661 42.4188 86.718C41.9636 86.6402 41.5209 86.4272 41.0859 86.412C40.1845 86.3796 39.3882 85.9338 38.5214 85.7884C38.1562 85.7274 37.8166 85.5074 37.4573 85.3922C37.2026 85.3109 36.9298 85.2979 36.6717 85.2261C36.3713 85.1426 36.0783 85.0234 35.7791 84.9288C35.2469 84.7595 34.7139 84.5929 34.1803 84.429C33.2738 84.1513 32.4347 83.6347 31.4847 83.4971C31.1163 83.4442 30.7711 83.232 30.4105 83.1068C29.4376 82.7697 28.4615 82.4407 27.4871 82.1063C27.3885 82.0714 27.2921 82.0289 27.1985 81.9791C26.7595 81.7538 26.3318 81.5214 25.8317 81.4667C25.4863 81.429 25.1579 81.2144 24.825 81.0725C24.4752 80.9245 24.1554 80.6954 23.7513 80.7103C23.5823 80.7172 23.4169 80.5289 23.2449 80.444C22.4005 80.0295 21.583 79.4871 20.6982 79.2483C19.9289 79.0404 19.2687 78.6095 18.5605 78.2844C17.4498 77.7577 16.3657 77.1602 15.3126 76.4944C14.6687 76.0976 14.0262 75.6981 13.3808 75.304C12.9771 75.0572 12.5526 74.849 12.1667 74.5677C11.4427 74.0425 10.7235 73.5053 10.034 72.922C9.24216 72.2529 8.48356 71.527 7.71161 70.8264C7.45149 70.5897 7.17777 70.3699 6.93141 70.115C6.28323 69.4448 5.59662 68.814 5.01687 68.0668C4.47732 67.3719 4.0556 66.5463 3.583 65.7771C3.53407 65.6971 3.49039 65.6122 3.43605 65.5387C2.96674 64.9097 2.6026 64.1782 2.36197 63.3811C2.17362 62.7569 1.8363 62.2037 1.63951 61.5814C1.28105 60.4461 1.0256 59.2729 1.03112 58.0269C1.03232 57.8005 0.985086 57.5758 0.975821 57.3483C0.961063 57.0202 0.900849 56.6774 0.964261 56.3663C1.23228 55.0659 1.41793 53.7439 1.84633 52.4836C2.29406 51.1649 2.73309 49.8396 3.33417 48.6038C3.73039 47.7888 4.19056 47.0131 4.64057 46.2336C5.14865 45.3534 5.66894 44.4835 6.20146 43.6238C6.42891 43.2547 6.69737 42.9196 6.94641 42.5683C7.52679 41.7481 8.10949 40.9282 8.68784 40.105C9.15462 39.4412 9.61518 38.7697 10.0873 38.1108C10.2211 37.9429 10.3623 37.7836 10.5102 37.6335C10.6486 37.4756 10.8187 37.3408 10.9179 37.1547C11.4318 36.1893 12.162 35.4727 12.8488 34.7022C13.2888 34.2085 13.6152 33.6012 14.081 33.1188C15.0868 32.0778 15.999 30.9027 17.0169 29.8798C18.2634 28.6287 19.571 27.4645 20.8684 26.2864C21.4667 25.744 22.0873 25.2335 22.7211 24.754C23.7525 23.9747 24.8033 23.2326 25.8443 22.4726C26.1334 22.2608 26.4083 22.0178 26.706 21.8238C27.9436 21.0206 29.1833 20.219 30.4321 19.4423C31.037 19.0651 31.6661 18.7469 32.2824 18.395C33.151 17.899 34.0131 17.3867 34.8841 16.9008C35.3503 16.6408 35.8283 16.413 36.3044 16.1808C37.7636 15.4707 39.2187 14.7447 40.6874 14.0666C41.4397 13.7197 42.2223 13.4717 42.987 13.1613C44.0757 12.7189 45.1532 12.2288 46.25 11.8196C47.3078 11.423 48.3829 11.1043 49.4493 10.7481C50.7842 10.303 52.1166 9.83793 53.4554 9.41156C54.5733 9.05673 55.6974 8.73213 56.8227 8.41751C58.4847 7.95188 60.1473 7.4807 61.8164 7.05806C63.5944 6.60792 65.3785 6.20911 67.161 5.79324C67.5547 5.70118 67.9521 5.62923 68.347 5.54856C68.351 5.50115 68.3548 5.45514 68.3577 5.40761L68.3595 5.41204ZM93.707 4.45038C93.7007 4.48627 93.6956 4.5223 93.6894 4.5582C94.1689 4.83291 94.6593 5.08349 95.1222 5.39295C95.3152 5.5327 95.4713 5.73291 95.5743 5.97281C95.5994 6.06102 95.6066 6.15581 95.5953 6.24961C95.584 6.34341 95.5546 6.43362 95.5093 6.51305C95.4533 6.58128 95.386 6.63491 95.3121 6.67029C95.2382 6.70567 95.1593 6.72197 95.0809 6.71809C94.8761 6.69712 94.6846 6.56503 94.4847 6.48831C93.1249 5.96545 91.7696 5.33616 90.324 5.27528C88.6125 5.20363 86.8865 5.32879 85.1662 5.41237C83.705 5.48346 82.2441 5.59537 80.784 5.73131C79.1289 5.88672 77.4713 6.03203 75.8238 6.28959C74.0313 6.5707 72.2463 6.95535 70.4621 7.33305C69.0563 7.62969 67.6557 7.97613 66.2548 8.3141C65.48 8.501 64.7094 8.71368 63.9368 8.91347C62.7256 9.22716 61.5106 9.51227 60.3059 9.86325C58.9895 10.247 57.6849 10.694 56.3751 11.1137C55.4896 11.3983 54.6008 11.6698 53.7183 11.9701C52.8137 12.2793 51.9151 12.6187 51.0133 12.9451C50.3185 13.197 49.621 13.4416 48.9277 13.7007C48.2112 13.9685 47.4998 14.2538 46.7839 14.526C45.686 14.9449 44.5792 15.3276 43.4913 15.7842C42.5513 16.1796 41.6446 16.7011 40.7028 17.092C38.8152 17.8962 36.9735 18.8592 35.1921 19.9736C33.9383 20.7428 32.6404 21.3973 31.4302 22.295C30.6374 22.8838 29.7346 23.2621 28.9373 23.8813C28.2752 24.3943 27.5673 24.8193 26.8973 25.3187C25.9491 26.0255 25.0518 26.8491 24.0676 27.4662C23.1908 28.0162 22.5316 28.8686 21.7336 29.5158C21.409 29.7709 21.0966 30.0478 20.798 30.3451C19.9841 31.1806 19.1801 32.0326 18.3775 32.8834C17.6879 33.6157 16.9538 34.3023 16.3347 35.1112C15.7199 35.9122 14.9989 36.5763 14.4075 37.4009C13.9188 38.082 13.4622 38.8032 12.8518 39.3485C12.8362 39.3623 12.8304 39.394 12.8176 39.4137C12.5782 39.7745 12.3502 40.1478 12.0958 40.4942C11.5478 41.2448 10.9808 41.975 10.4327 42.7256C10.052 43.2482 9.69253 43.7914 9.32134 44.3235C8.19604 45.9411 7.10436 47.5848 6.33206 49.4829C6.28704 49.5934 6.1998 49.6809 6.14461 49.7874C5.89818 50.2656 5.58161 50.7179 5.42766 51.2329C5.14352 52.1854 4.63469 53.0401 4.50137 54.0555C4.46946 54.2024 4.42814 54.3465 4.37777 54.4866C4.06493 55.546 3.94043 56.6633 4.01237 57.7659C4.11389 59.0124 4.46648 60.1906 4.92334 61.3085C5.1333 61.821 5.33749 62.3541 5.62791 62.7981C6.232 63.721 6.88838 64.5961 7.53192 65.4811C7.84191 65.9076 8.157 66.3303 8.58726 66.6039C8.7117 66.6952 8.82581 66.8045 8.9271 66.9295C9.29221 67.3254 9.63082 67.7591 10.0216 68.1142C10.515 68.5635 11.0521 68.9472 11.5679 69.3638C12.3856 70.023 13.1532 70.7963 14.0339 71.309C14.6669 71.6765 15.304 72.0176 15.908 72.4565C16.4149 72.8012 16.9385 73.1116 17.4764 73.3863C17.9882 73.6673 18.5115 73.9187 19.0296 74.185C19.5556 74.4549 20.1207 74.6574 20.5967 75.0189C20.9858 75.3133 21.4019 75.3827 21.822 75.5017C22.0252 75.5591 22.2657 75.577 22.4171 75.7201C22.8248 76.1038 23.3187 76.2042 23.7949 76.38C24.2712 76.5559 24.7921 76.603 25.1985 76.9977C25.2903 77.0555 25.3906 77.0926 25.4948 77.1075C25.9346 77.2512 26.3762 77.3881 26.8142 77.5373C27.1081 77.637 27.3974 77.7572 27.6912 77.8583C28.2707 78.0581 28.8799 78.1809 29.4267 78.4644C30.0183 78.7696 30.6348 78.9327 31.255 79.1046C31.4561 79.1603 31.6602 79.2094 31.8568 79.2843C32.7924 79.6398 33.7034 80.1122 34.6636 80.3396C36.1136 80.6837 37.517 81.1945 38.9421 81.626C39.4662 81.7845 40.0004 81.9034 40.5307 82.0373C41.5544 82.2969 42.5559 82.6737 43.6144 82.7556C43.6344 82.7626 43.6539 82.7713 43.6727 82.7817C44.1686 82.94 44.657 83.1439 45.1636 83.2471C46.5232 83.5237 47.8914 83.7548 49.2557 84.0095C49.6052 84.0744 49.948 84.1794 50.2987 84.2332C50.7535 84.304 51.2176 84.3111 51.669 84.4012C52.3666 84.5245 53.0565 84.6938 53.7355 84.9084C53.9964 84.9974 54.2195 84.8192 54.505 84.9531C55.0427 85.2061 55.6205 85.3308 56.2066 85.3205C56.9644 85.2992 57.6895 85.4277 58.4241 85.5544C58.7879 85.6181 59.206 85.4752 59.5314 85.6205C60.5446 86.0732 61.6351 85.9264 62.6769 86.15C63.7854 86.3879 64.9293 86.4313 66.0577 86.5518C66.3728 86.5862 66.6939 86.5664 67.0067 86.6119C67.8743 86.739 68.7272 86.9898 69.6199 86.9087C69.8059 86.8759 69.9938 86.8756 70.1778 86.9077C71.1571 87.1751 72.1762 87.0571 73.1642 87.2129C74.0342 87.3502 74.9421 87.0653 75.7893 87.4435C75.8506 87.4617 75.9142 87.4682 75.9779 87.4627C76.7125 87.4712 77.4486 87.4447 78.1801 87.4923C79.2809 87.5634 80.3758 87.6886 81.4862 87.651C82.5824 87.6132 83.6799 87.6402 84.7739 87.6979C85.3298 87.7262 85.8872 87.4931 86.4391 87.6772C86.6165 87.7415 86.8033 87.7677 86.9908 87.7544C87.7076 87.6779 88.4214 87.5758 89.1303 87.7658C89.2978 87.7879 89.468 87.7819 89.6359 87.7479C89.9506 87.7218 90.2657 87.6606 90.5782 87.6652C91.5912 87.6788 92.6039 87.7163 93.6163 87.7453C94.2051 87.3327 94.8097 87.8419 95.4233 87.6008C95.8058 87.4499 96.2544 87.4694 96.6589 87.5262C97.8136 87.6862 98.962 87.5373 100.116 87.4087C100.478 87.3859 100.839 87.3892 101.198 87.4186C101.321 87.4455 101.446 87.4629 101.571 87.4706C102.645 87.3304 103.717 87.0987 104.79 87.0485C106.229 86.982 107.664 86.9193 109.1 86.7203C109.731 86.6331 110.366 86.6123 110.999 86.5676C111.75 86.5145 112.502 86.4729 113.252 86.4114C113.397 86.3799 113.539 86.3323 113.677 86.2693C113.795 86.2239 113.916 86.1914 114.038 86.1723C114.523 86.1323 115.008 86.1094 115.492 86.0736C116.112 86.0288 116.731 85.9346 117.352 85.8772C118.37 85.7802 119.384 85.5576 120.4 85.4097C120.688 85.3681 120.985 85.437 121.273 85.3926C122.008 85.2787 122.74 85.1265 123.474 84.9956C123.848 84.9296 124.225 84.8948 124.598 84.8188C125.493 84.6367 126.383 84.4046 127.281 84.2579C128.807 84.0081 130.329 83.727 131.84 83.349C132.221 83.2542 132.623 83.2502 132.988 83.1017C133.438 82.92 133.869 82.7251 134.351 82.7834C134.52 82.7823 134.69 82.7461 134.852 82.6764C135.426 82.4943 135.997 82.2921 136.572 82.1172C137.77 81.7528 138.98 81.4404 140.167 81.0256C140.769 80.8156 141.396 80.7491 141.978 80.354C142.381 80.0814 142.915 80.1017 143.386 79.9675C143.544 79.9228 143.808 80.0136 143.798 79.6326C143.867 79.6112 143.937 79.5948 144.007 79.5837C144.441 79.4848 144.941 79.5184 145.299 79.2606C146.079 78.6986 147.031 78.6901 147.754 77.9966C147.798 77.9549 147.877 77.9649 147.939 77.9549C148.651 77.826 149.341 77.536 149.971 77.1005C150.266 76.9062 150.568 76.6719 150.952 76.6519C151.229 76.6372 151.51 76.4315 151.78 76.2852C152.05 76.1388 152.302 75.9411 152.573 75.802C153.359 75.3996 154.155 75.0251 154.938 74.6139C155.145 74.5057 155.306 74.2644 155.511 74.1503C156.248 73.7412 156.995 73.3614 157.738 72.9655C157.913 72.8721 158.146 72.8075 158.237 72.6429C158.458 72.245 158.817 72.2251 159.116 72.0496C159.248 71.9725 159.41 71.9649 159.535 71.8773C159.886 71.6343 160.204 71.2863 160.576 71.1285C160.966 70.9629 161.214 70.5299 161.623 70.4283C161.703 70.4089 161.76 70.2462 161.833 70.1571C161.909 70.0456 161.999 69.9473 162.098 69.8653C163.037 69.2228 163.942 68.5069 164.805 67.7227C165.11 67.4479 165.447 67.2259 165.769 66.9768C165.856 66.9115 165.937 66.836 166.012 66.7515C166.289 66.4286 166.548 66.0826 166.836 65.7779C167.14 65.4564 167.481 65.187 167.784 64.8641C167.949 64.6866 168.033 64.3609 168.213 64.2525C168.635 63.9989 168.937 63.6225 169.228 63.1998C169.485 62.8283 169.745 62.4135 170.079 62.1742C170.469 61.896 170.655 61.4816 170.819 61.0619C170.995 60.6126 171.272 60.2896 171.543 59.9465C171.667 59.8071 171.785 59.6603 171.896 59.5066C172.211 59.019 172.47 58.4662 172.834 58.0403C173.218 57.5911 173.288 56.9446 173.671 56.515C173.81 56.3608 173.929 56.1812 174.022 55.9835C174.223 55.537 174.402 55.0754 174.584 54.6182C174.85 53.9508 175.12 53.2867 175.374 52.6123C175.52 52.2244 175.59 51.7861 175.779 51.4339C176.078 50.877 176.18 50.2437 176.281 49.6511C176.392 49.002 176.648 48.4249 176.775 47.7957C176.877 47.2877 177.039 46.7862 177.082 46.2745C177.122 45.8146 177.145 45.3556 177.22 44.898C177.248 44.7523 177.259 44.6032 177.251 44.4555C177.187 43.6872 177.066 42.924 177.059 42.1537C177.056 41.7241 177.009 41.3631 176.808 41.0245C176.769 40.9376 176.743 40.8429 176.73 40.7444C176.614 40.1971 176.566 39.6107 176.373 39.1098C175.803 37.6292 175.159 36.1913 174.315 34.9086C174.113 34.6023 174.107 34.0445 173.618 34.0586C173.587 34.0595 173.53 33.9421 173.531 33.8789C173.536 33.6403 173.334 33.5732 173.278 33.4404C173.017 32.8209 172.607 32.3878 172.2 31.9254C171.875 31.5578 171.653 31.0636 171.338 30.6802C170.97 30.2306 170.443 29.976 170.205 29.3577C170.144 29.2567 170.057 29.1826 169.956 29.1461C169.439 28.8799 169.118 28.3342 168.699 27.9295C168.378 27.6201 168.107 27.2359 167.781 26.9358C167.148 26.3517 166.49 25.8056 165.847 25.2358C165.418 24.8555 165.02 24.4208 164.57 24.0789C163.594 23.3377 162.592 22.6443 161.606 21.9203C161.321 21.7119 161.082 21.3453 160.777 21.2641C159.983 21.055 159.534 20.0787 158.671 20.0604C158.621 20.0591 158.578 19.9671 158.526 19.9263C158.285 19.7396 158.054 19.5327 157.8 19.3756C157.357 19.102 156.901 18.8553 156.447 18.6073C155.396 18.0351 154.325 17.51 153.298 16.8842C152.713 16.5291 152.068 16.3728 151.492 15.9595C150.843 15.4946 150.063 15.2785 149.335 14.9668C149.141 14.8837 148.918 14.8804 148.73 14.7839C147.912 14.3639 147.135 13.8469 146.246 13.6147C145.624 13.4526 145.019 13.2105 144.413 12.9783C143.958 12.8034 143.518 12.578 143.065 12.3934C142.397 12.122 141.737 11.7151 141.046 11.6522C140.373 11.5899 139.86 11.1173 139.204 11.0372C138.616 10.9645 138.068 10.5965 137.486 10.4246C136.622 10.1698 135.75 9.9535 134.906 9.6136C134.532 9.46296 134.106 9.46423 133.746 9.28288C133.296 9.04376 132.806 8.91564 132.306 8.90598C132.023 8.90316 131.622 8.99306 131.378 8.61179C131.323 8.52706 131.144 8.56374 131.025 8.53523C130.764 8.47011 130.503 8.40081 130.242 8.33012C130.018 8.26906 129.798 8.1831 129.572 8.14568C129.163 8.07996 128.748 8.06127 128.34 7.9886C128.033 7.93255 127.738 7.80319 127.431 7.73867C126.8 7.60646 126.166 7.49498 125.534 7.37667C124.757 7.23123 123.982 7.06494 123.199 6.94844C122.536 6.8492 121.86 6.84148 121.197 6.73668C119.103 6.40934 117.009 6.0849 114.9 5.86853C113.855 5.76137 112.81 5.65095 111.766 5.5373C111.039 5.45787 110.315 5.34356 109.586 5.28082C108.812 5.21312 108.034 5.20269 107.26 5.1336C106.91 5.1023 106.571 4.94005 106.221 4.9243C105.466 4.88973 104.707 4.94036 103.953 4.90441C102.567 4.83598 101.184 4.72432 99.7999 4.64199C98.9802 4.59323 98.1597 4.56267 97.339 4.53489C96.3706 4.50083 95.4025 4.47525 94.4344 4.44966C94.1939 4.44307 93.9527 4.4533 93.7112 4.45506L93.707 4.45038Z" fill="#323232"/>
</svg>
