<svg width="66" height="52" viewBox="0 0 66 52" fill="none" xmlns="http://www.w3.org/2000/svg">
<path d="M55.9063 4.62689C51.634 2.62802 47.0659 1.17532 42.29 0.348145C41.7035 1.40856 41.0182 2.83484 40.5458 3.96944C35.4689 3.20595 30.4387 3.20595 25.4552 3.96944C24.9829 2.83484 24.2821 1.40856 23.6903 0.348145C18.9093 1.17532 14.3359 2.63336 10.0636 4.63748C1.44631 17.6591 -0.889684 30.3573 0.278318 42.8752C5.99374 47.1432 11.5327 49.736 16.9781 51.4326C18.3226 49.5822 19.5218 47.6151 20.5548 45.5421C18.5874 44.7945 16.703 43.872 14.9225 42.801C15.3949 42.451 15.8569 42.0852 16.3033 41.7087C27.1631 46.7881 38.9625 46.7881 49.6926 41.7087C50.1442 42.0852 50.6062 42.451 51.0734 42.801C49.2876 43.8772 47.3981 44.7998 45.4307 45.5474C46.4637 47.6151 47.6577 49.5875 49.0073 51.4378C54.458 49.7412 60.0021 47.1486 65.7175 42.8752C67.088 28.3638 63.3764 15.7822 55.9063 4.62689ZM22.0343 35.1768C18.7743 35.1768 16.1008 32.1334 16.1008 28.4274C16.1008 24.7213 18.7172 21.6727 22.0343 21.6727C25.3515 21.6727 28.0248 24.716 27.9677 28.4274C27.9729 32.1334 25.3515 35.1768 22.0343 35.1768ZM43.9616 35.1768C40.7016 35.1768 38.0281 32.1334 38.0281 28.4274C38.0281 24.7213 40.6444 21.6727 43.9616 21.6727C47.2787 21.6727 49.9521 24.716 49.8951 28.4274C49.8951 32.1334 47.2787 35.1768 43.9616 35.1768Z" fill="white"/>
</svg>
