<svg width="66" height="67" viewBox="0 0 66 67" fill="none" xmlns="http://www.w3.org/2000/svg">
<path fill-rule="evenodd" clip-rule="evenodd" d="M33 66.0068C51.216 66.0068 66 51.2228 66 33.0068C66 14.7908 51.216 0.00683594 33 0.00683594C14.784 0.00683594 0 14.7908 0 33.0068C0 51.2228 14.784 66.0068 33 66.0068ZM54.5169 38.749V36.637C54.5169 36.439 54.3849 36.307 53.9889 36.505L43.9569 39.409C43.8909 39.409 43.8909 39.409 43.8249 39.475C42.9773 40.3725 42.2427 41.044 41.8487 41.4041C41.7212 41.5207 41.6293 41.6046 41.5809 41.653C40.9869 42.181 40.1949 42.445 39.4029 42.445H35.7729V38.749H38.6769C38.7429 38.749 38.8089 38.749 38.8749 38.683L39.2709 38.353C39.4689 38.221 39.6669 38.023 39.8649 37.825C40.0002 37.7348 40.1047 37.6138 40.1995 37.5041C40.2433 37.4532 40.2851 37.4048 40.3269 37.363C40.4622 37.2728 40.5667 37.1518 40.6614 37.0421C40.7053 36.9912 40.7471 36.9428 40.7889 36.901C40.8879 36.769 41.0034 36.637 41.1189 36.505C41.2344 36.373 41.3499 36.241 41.4489 36.109C41.6469 35.911 41.7789 35.713 41.9109 35.515C41.9769 35.416 42.0594 35.317 42.1419 35.218C42.2244 35.119 42.3069 35.02 42.3729 34.921C42.4192 34.7821 42.498 34.6757 42.5865 34.5562C42.6241 34.5053 42.6635 34.4521 42.7029 34.393C42.8349 34.195 42.9669 33.997 43.0329 33.865L43.033 33.8649C43.297 33.4029 43.5609 32.941 43.7589 32.479C43.8598 32.2774 43.9221 32.0757 43.9753 31.9034C43.9918 31.8502 44.0073 31.7998 44.0229 31.753C44.0559 31.621 44.0889 31.5056 44.1219 31.3901C44.1549 31.2746 44.1879 31.159 44.2209 31.027C44.2242 30.9972 44.2276 30.9675 44.2309 30.938C44.2932 30.3798 44.3496 29.8752 44.2869 29.311C44.2869 29.113 44.2869 28.915 44.2209 28.783C44.2209 28.717 44.2209 28.585 44.1549 28.453C44.0889 27.859 43.8909 27.331 43.6269 26.803C43.5939 26.704 43.5444 26.605 43.4949 26.506C43.4454 26.407 43.3959 26.308 43.3629 26.209C43.2309 26.011 43.1154 25.813 42.9999 25.615C42.8844 25.417 42.7689 25.219 42.6369 25.021C42.5955 24.8967 42.5281 24.7985 42.4673 24.7099C42.4312 24.6573 42.3975 24.6082 42.3729 24.559C42.2739 24.427 42.1585 24.2786 42.043 24.1301C41.9274 23.9816 41.8119 23.833 41.7129 23.701C41.6139 23.602 41.5314 23.4865 41.4489 23.371C41.3664 23.2555 41.2839 23.14 41.1849 23.041C41.0859 22.942 41.0034 22.843 40.9209 22.744C40.8384 22.645 40.7559 22.546 40.6569 22.447C39.9969 21.721 39.3369 21.061 38.7429 20.533C38.7003 20.4478 38.6302 20.3901 38.5503 20.3243C38.5064 20.2883 38.4597 20.2498 38.4129 20.203C37.9509 19.807 37.4889 19.411 37.1589 19.147C36.9609 19.015 36.829 18.8831 36.697 18.7511L36.6969 18.751C36.4989 18.619 36.3669 18.487 36.3009 18.421C36.3009 18.355 36.2349 18.355 36.2349 18.355L35.8389 18.223V15.055C35.8389 14.527 35.6409 14.065 35.3109 13.735C34.9809 13.405 34.5189 13.207 33.9909 13.207C33.0009 13.207 32.1429 14.065 32.1429 15.121V17.299L31.9449 17.233L31.4169 17.101L30.9549 16.969L27.3249 15.979C27.1929 15.913 27.0609 16.111 27.1269 16.243L27.7209 17.299L27.9189 17.695C27.9519 17.794 28.0014 17.893 28.0509 17.992C28.1004 18.091 28.1499 18.19 28.1829 18.289C28.2159 18.388 28.2654 18.4705 28.3149 18.553C28.3644 18.6355 28.4139 18.718 28.4469 18.817C28.6449 19.213 28.8429 19.675 29.0409 20.137L29.4369 21.127C29.7669 21.919 30.0969 22.843 30.3609 23.767C30.4715 23.9882 30.5358 24.2557 30.5925 24.4918C30.6035 24.5376 30.6142 24.5822 30.6249 24.625L30.6909 24.757C30.8229 25.219 30.8889 25.615 30.9549 26.077C31.0209 26.341 31.0869 26.671 31.0869 26.935C31.0869 27.1 31.1034 27.265 31.1199 27.43C31.1364 27.595 31.1529 27.76 31.1529 27.925C31.2189 28.255 31.2189 28.585 31.2189 28.849C31.2189 29.641 31.1529 30.367 31.0209 31.027L30.8229 31.621C30.7983 31.6947 30.7646 31.7776 30.7286 31.8662C30.6678 32.0156 30.6004 32.1813 30.5589 32.347C30.4929 32.545 30.4269 32.677 30.3609 32.809L30.3609 32.809C30.0309 33.601 29.6349 34.459 29.1729 35.185C28.5129 36.307 27.9189 37.231 27.4569 37.891C27.3909 38.023 27.3249 38.089 27.2589 38.155C27.1269 38.353 27.2589 38.617 27.5229 38.617H32.2089V42.313H27.4569C26.2029 42.313 25.0149 41.653 24.4209 40.465C24.1569 39.871 24.0249 39.211 24.0909 38.617C24.0909 38.485 23.9589 38.287 23.7609 38.287H14.0589C13.9269 38.287 13.7949 38.419 13.7949 38.551V38.749C13.7949 44.887 18.7449 49.837 24.8169 49.837H42.0429C45.2255 49.837 47.0507 46.9225 48.8537 44.0435C49.3689 43.2208 49.8822 42.4011 50.4249 41.653C51.3489 40.333 53.6589 39.277 54.3189 39.013C54.4509 38.947 54.5169 38.881 54.5169 38.749Z" fill="white"/>
</svg>
