<svg width="194" height="202" viewBox="0 0 194 202" fill="none" xmlns="http://www.w3.org/2000/svg">
<g opacity="0.5">
<path d="M30.735 100.4C30.2803 100.78 30.0176 101.342 30.0176 101.935V185L127.518 112.687L64.7456 73.7615C64.0125 73.3069 63.0707 73.3735 62.4089 73.9266L30.735 100.4Z" fill="url(#paint0_linear_47_251)"/>
<path d="M30.0176 185L117.024 200.238C117.907 200.393 118.785 199.941 119.173 199.133L152.242 130.118C152.683 129.198 152.36 128.092 151.493 127.554L127.518 112.687L30.0176 185Z" fill="url(#paint1_linear_47_251)"/>
</g>
<path d="M118.518 200.5L31.6725 185.29C30.7157 185.122 30.0176 184.291 30.0176 183.32V101" stroke="black" stroke-width="2" stroke-linecap="round"/>
<path fill-rule="evenodd" clip-rule="evenodd" d="M40.0176 25.0955V176.728L48.3741 178.209L138.625 194.202V81.2746V78.646V42.5699L40.0176 25.0955ZM128.518 48.8014C128.518 48.8014 87.0262 41.4601 48.5176 34.6359V169.714C87.0262 176.538 128.518 183.879 128.518 183.879V48.8014Z" fill="url(#paint2_linear_47_251)"/>
<path d="M48.5176 34.6359C87.0262 41.4601 128.518 48.8014 128.518 48.8014V183.879C128.518 183.879 87.0262 176.538 48.5176 169.714V34.6359Z" fill="url(#paint3_linear_47_251)"/>
<path d="M40.0176 176.728C40.0176 176.728 40.0176 84.3116 40.0176 25.0955M40.0176 176.728V25.0955M40.0176 176.728L48.3741 178.209L138.625 194.202M138.625 194.202C138.625 194.202 138.625 132.686 138.625 81.2746M138.625 194.202V81.2746M138.625 194.202L141.018 192.493V40.2009M40.0176 25.0955C78.5262 31.9197 138.625 42.5699 138.625 42.5699M40.0176 25.0955C41.5176 23.5059 42.5176 23 42.5176 23L141.018 40.2009M40.0176 25.0955L138.625 42.5699M138.625 42.5699V78.646M138.625 42.5699C138.625 56.4977 138.625 62.6794 138.625 78.646M138.625 42.5699L141.018 40.2009M138.625 78.646V81.2746M138.625 78.646C138.625 78.646 138.644 79.5967 138.625 81.2746M138.625 78.646C138.625 79.519 138.625 80.3953 138.625 81.2746M48.5176 34.6359C87.0262 41.4601 128.518 48.8014 128.518 48.8014M48.5176 34.6359C48.5176 93.8521 48.5176 169.714 48.5176 169.714M48.5176 34.6359V169.714M128.518 48.8014C128.518 108.018 128.518 183.879 128.518 183.879M128.518 48.8014V183.879M48.5176 169.714C87.0262 176.538 128.518 183.879 128.518 183.879" stroke="black" stroke-width="2.22842" stroke-linecap="round"/>
<path d="M82.0586 143.653C70.2041 145.525 60.2587 157.022 57.0176 162.102L121.518 174.773C118.276 169.693 108.872 147.302 97.0176 145.43C96.2717 143.505 96.3516 138.924 96.4848 136.874C103.811 133.933 109.071 122.717 110.563 113.84C110.563 122.031 110.909 123.217 112.294 123.324C113.01 123.379 114.345 121.987 115.091 118.243C116.024 113.564 118.421 106.345 117.089 104.473C116.779 103.983 115.225 103.965 113.626 105.677C111.628 107.816 126.518 58.4137 89.5176 52.3428C52.0176 49.3073 67.4069 100.204 65.409 98.0647C63.8106 96.3535 62.2566 96.3713 61.9459 96.8615C60.6139 98.7332 63.0114 105.952 63.9438 110.632C64.6897 114.375 66.0248 115.767 66.7409 115.712C68.1262 115.605 68.4725 114.419 68.4725 113.84C69.9643 122.717 75.2655 132.156 82.5913 135.097C82.7245 137.147 82.8045 141.728 82.0586 143.653Z" fill="black" stroke="black"/>
<path d="M86.6645 126.206C86.5193 126.253 85.9949 126.392 86.0183 126.392" stroke="white" stroke-linecap="round"/>
<path d="M79.1136 86.4089C78.5255 85.3378 78.6521 84.0788 78.6521 82.8909C78.6521 80.6436 79.005 78.6024 80.4316 76.7888C84.8872 71.1246 94.5151 73.4159 98.8727 78.0134C100.795 80.042 101.276 82.9936 100.56 85.6669C100.014 87.7035 98.8973 89.5837 97.7393 91.3176C95.9335 94.0216 93.9925 96.6265 92.2111 99.3499C90.781 101.536 89.2876 103.727 88.1034 106.064C87.1735 107.9 86.7181 109.848 86.5137 111.891C86.2513 114.513 86.559 117.142 86.129 119.752" stroke="white" stroke-linecap="round"/>
<path d="M160.018 189.95L141.518 154.537V130.759L167.018 189.444L160.018 189.95Z" fill="black"/>
<defs>
<linearGradient id="paint0_linear_47_251" x1="29.0176" y1="186" x2="62.0176" y2="110" gradientUnits="userSpaceOnUse">
<stop/>
<stop offset="1" stop-color="#D9D9D9" stop-opacity="0"/>
</linearGradient>
<linearGradient id="paint1_linear_47_251" x1="18.0176" y1="193.5" x2="117.018" y2="201" gradientUnits="userSpaceOnUse">
<stop/>
<stop offset="1" stop-color="#D9D9D9" stop-opacity="0"/>
</linearGradient>
<linearGradient id="paint2_linear_47_251" x1="90.5176" y1="23" x2="152.361" y2="255.868" gradientUnits="userSpaceOnUse">
<stop stop-color="#FFE600"/>
<stop offset="0.458707" stop-color="#FFE500"/>
<stop offset="0.479467" stop-color="#9E8F05"/>
<stop offset="0.738281" stop-color="#DDC700"/>
<stop offset="1" stop-color="#FFE600" stop-opacity="0"/>
</linearGradient>
<linearGradient id="paint3_linear_47_251" x1="90.5176" y1="23" x2="123.249" y2="187.275" gradientUnits="userSpaceOnUse">
<stop stop-color="#FCFCFC"/>
<stop offset="1" stop-color="#9A9A9A"/>
</linearGradient>
</defs>
</svg>
