<svg width="194" height="202" viewBox="0 0 194 202" fill="none" xmlns="http://www.w3.org/2000/svg">
<g opacity="0.5">
<path d="M17.3014 100.4C16.8467 100.78 16.584 101.342 16.584 101.935V185L114.084 112.687L51.312 73.7615C50.579 73.3069 49.6371 73.3735 48.9753 73.9266L17.3014 100.4Z" fill="url(#paint0_linear_47_227)"/>
<path d="M16.584 185L103.591 200.238C104.474 200.393 105.352 199.941 105.739 199.133L138.809 130.118C139.25 129.198 138.927 128.092 138.059 127.554L114.084 112.687L16.584 185Z" fill="url(#paint1_linear_47_227)"/>
</g>
<path d="M105.084 200.5L18.239 185.29C17.2821 185.122 16.584 184.291 16.584 183.32V101" stroke="black" stroke-width="2" stroke-linecap="round"/>
<path fill-rule="evenodd" clip-rule="evenodd" d="M130.832 179.384L126.208 180.325L87.8366 90.626L142.399 79.5144L151.528 100.855L152.193 102.41C156.309 112.294 176.651 165.278 130.228 144.286C117.422 138.496 130.832 179.384 130.832 179.384Z" fill="url(#paint2_linear_47_227)"/>
<path d="M130.832 179.384L180.77 169.214L152.193 102.41C156.309 112.294 176.651 165.278 130.228 144.286C117.422 138.496 130.832 179.384 130.832 179.384Z" fill="url(#paint3_linear_47_227)"/>
<path d="M126.208 180.325C126.208 180.325 102.821 125.656 87.8366 90.626M126.208 180.325L87.8366 90.626M126.208 180.325L130.832 179.384M180.77 169.214L183.397 164.083C183.699 163.493 183.723 162.8 183.462 162.191L145.931 74.4533M180.77 169.214L130.832 179.384M180.77 169.214C180.77 169.214 165.203 132.823 152.193 102.41M180.77 169.214L152.193 102.41M87.8366 90.626C109.144 86.2867 142.399 79.5144 142.399 79.5144M87.8366 90.626C88.6097 89.5 90.3943 86.9686 91.2778 85.7174C91.6087 85.2488 92.1067 84.9279 92.6698 84.8184L145.931 74.4533M87.8366 90.626L142.399 79.5144M142.399 79.5144L144.684 76.2396L145.931 74.4533M142.399 79.5144L151.528 100.855M142.399 79.5144C145.923 87.7535 147.487 91.4103 151.528 100.855M151.528 100.855L152.193 102.41M151.528 100.855C151.528 100.855 151.778 101.414 152.193 102.41M151.528 100.855C151.749 101.372 151.971 101.89 152.193 102.41M130.832 179.384C130.832 179.384 117.422 138.496 130.228 144.286C176.651 165.278 156.309 112.294 152.193 102.41" stroke="black" stroke-width="2.22842" stroke-linecap="round"/>
<path d="M144.659 76.1805L91.3711 86.3528" stroke="black" stroke-width="1.11421" stroke-linecap="round"/>
<path d="M142.679 77.817L89.3906 87.9893" stroke="black" stroke-width="1.11421" stroke-linecap="round"/>
<path d="M141.263 79.2108L87.9746 89.3831" stroke="black" stroke-width="1.11421" stroke-linecap="round"/>
<path fill-rule="evenodd" clip-rule="evenodd" d="M180.485 168.548L183.826 163.04C183.826 163.04 181.678 166.136 180.485 168.548Z" fill="black"/>
<path d="M142.685 80.1825L180.485 168.548C181.678 166.136 183.826 163.04 183.826 163.04L146.217 75.1214L142.685 80.1825Z" fill="#404040"/>
<path d="M142.685 80.1825C142.685 80.1825 142.678 77.8176 142.96 76.9084C143.241 75.9991 143.948 75.3021 144.231 75.1809C144.515 75.0598 146.217 75.1214 146.217 75.1214M142.685 80.1825C142.685 80.1825 165.612 133.779 180.485 168.548M142.685 80.1825L146.217 75.1214M142.685 80.1825L180.485 168.548M146.217 75.1214L183.826 163.04M180.485 168.548C181.678 166.136 183.826 163.04 183.826 163.04M180.485 168.548L183.826 163.04" stroke="black" stroke-width="2.22842" stroke-linecap="round"/>
<path d="M154.203 169.145L172.537 164.858" stroke="black" stroke-linecap="round"/>
<path d="M152.586 165.488L170.92 161.201" stroke="black" stroke-linecap="round"/>
<path fill-rule="evenodd" clip-rule="evenodd" d="M37.9405 178.896L29.584 177.432V27.571L128.191 44.8413V80.4959V83.0938C128.006 99.5384 124.143 186.656 61.896 128.964C44.7253 113.05 37.9405 178.896 37.9405 178.896Z" fill="url(#paint4_linear_47_227)"/>
<path d="M37.9405 178.896L128.191 194.702V83.0938C128.006 99.5384 124.143 186.656 61.896 128.964C44.7253 113.05 37.9405 178.896 37.9405 178.896Z" fill="url(#paint5_linear_47_227)"/>
<path d="M29.584 177.432C29.584 177.432 29.584 86.0954 29.584 27.571M29.584 177.432V27.571M29.584 177.432L37.9405 178.896M128.191 194.702L136.719 188.683C137.31 188.265 137.662 187.586 137.662 186.862V39.8273M128.191 194.702L37.9405 178.896M128.191 194.702C128.191 194.702 128.191 133.905 128.191 83.0938M128.191 194.702V83.0938M29.584 27.571C68.0926 34.3155 128.191 44.8413 128.191 44.8413M29.584 27.571C31.905 26.3213 37.5449 23.371 39.4935 22.3528C39.9332 22.123 40.434 22.0485 40.9221 22.1377L137.662 39.8273M29.584 27.571L128.191 44.8413M128.191 44.8413L134.32 41.597L137.662 39.8273M128.191 44.8413V80.4959M128.191 44.8413C128.191 58.6063 128.191 64.7158 128.191 80.4959M128.191 80.4959V83.0938M128.191 80.4959C128.191 80.4959 128.21 81.4355 128.191 83.0938M128.191 80.4959C128.191 81.3587 128.191 82.2248 128.191 83.0938M37.9405 178.896C37.9405 178.896 44.7253 113.05 61.896 128.964C124.143 186.656 128.006 99.5384 128.191 83.0938" stroke="black" stroke-width="2.22842" stroke-linecap="round"/>
<path d="M134.32 41.4987L38.498 23.6714" stroke="black" stroke-width="1.11421" stroke-linecap="round"/>
<path d="M129.863 42.6127L34.041 24.7854" stroke="black" stroke-width="1.11421" stroke-linecap="round"/>
<path d="M126.52 43.727L30.6982 25.8997" stroke="black" stroke-width="1.11421" stroke-linecap="round"/>
<path fill-rule="evenodd" clip-rule="evenodd" d="M128.191 193.589L137.662 187.829C137.662 187.829 131.89 190.904 128.191 193.589Z" fill="black"/>
<path d="M128.191 45.9566V193.589C131.89 190.904 137.662 187.829 137.662 187.829V40.9426L128.191 45.9566Z" fill="#404040"/>
<path d="M128.191 45.9566C128.191 45.9566 129.863 42.6129 130.977 41.4987C132.091 40.3845 133.762 39.8274 134.32 39.8274C134.877 39.8274 137.662 40.9426 137.662 40.9426M128.191 45.9566C128.191 45.9566 128.191 135.5 128.191 193.589M128.191 45.9566L137.662 40.9426M128.191 45.9566V193.589M137.662 40.9426V187.829M128.191 193.589C131.89 190.904 137.662 187.829 137.662 187.829M128.191 193.589L137.662 187.829" stroke="black" stroke-width="2.22842" stroke-linecap="round"/>
<path d="M104.584 184L123.084 187.5" stroke="black" stroke-linecap="round"/>
<path d="M104.584 180L123.084 183.5" stroke="black" stroke-linecap="round"/>
<defs>
<linearGradient id="paint0_linear_47_227" x1="15.584" y1="186" x2="48.584" y2="110" gradientUnits="userSpaceOnUse">
<stop/>
<stop offset="1" stop-color="#D9D9D9" stop-opacity="0"/>
</linearGradient>
<linearGradient id="paint1_linear_47_227" x1="4.58398" y1="193.5" x2="103.584" y2="201" gradientUnits="userSpaceOnUse">
<stop/>
<stop offset="1" stop-color="#D9D9D9" stop-opacity="0"/>
</linearGradient>
<linearGradient id="paint2_linear_47_227" x1="95.6518" y1="97.1447" x2="230.063" y2="185.026" gradientUnits="userSpaceOnUse">
<stop stop-color="#B0E9B9"/>
<stop offset="0.702685" stop-color="#328143"/>
<stop offset="1" stop-color="#4EA557"/>
</linearGradient>
<linearGradient id="paint3_linear_47_227" x1="95.6518" y1="97.1447" x2="230.063" y2="185.026" gradientUnits="userSpaceOnUse">
<stop stop-color="#004E03"/>
<stop offset="0.702685" stop-color="#32813F"/>
<stop offset="1" stop-color="#4EA551"/>
</linearGradient>
<linearGradient id="paint4_linear_47_227" x1="37.9405" y1="41.4986" x2="164.96" y2="266.012" gradientUnits="userSpaceOnUse">
<stop stop-color="#B0DDE9"/>
<stop offset="0.702685" stop-color="#327981"/>
<stop offset="1" stop-color="#4E99A5"/>
</linearGradient>
<linearGradient id="paint5_linear_47_227" x1="37.9405" y1="41.4986" x2="164.96" y2="266.012" gradientUnits="userSpaceOnUse">
<stop stop-color="#003D4E"/>
<stop offset="0.702685" stop-color="#327981"/>
<stop offset="1" stop-color="#4E99A5"/>
</linearGradient>
</defs>
</svg>
