<svg width="195" height="203" viewBox="0 0 195 203" fill="none" xmlns="http://www.w3.org/2000/svg">
<g opacity="0.5">
<path d="M1.86777 99.4004C1.41313 99.7804 1.15039 100.342 1.15039 100.935V184L98.6504 111.687L35.8784 72.7615C35.1454 72.3069 34.2035 72.3735 33.5417 72.9266L1.86777 99.4004Z" fill="url(#paint0_linear_47_207)"/>
<path d="M1.15039 184L88.1569 199.238C89.04 199.393 89.9182 198.941 90.3056 198.133L123.375 129.118C123.816 128.198 123.493 127.092 122.625 126.554L98.6504 111.687L1.15039 184Z" fill="url(#paint1_linear_47_207)"/>
</g>
<path d="M89.6504 199.5L2.80536 184.29C1.84847 184.122 1.15039 183.291 1.15039 182.32V100" stroke="black" stroke-width="2" stroke-linecap="round"/>
<g filter="url(#filter0_ii_47_207)">
<path d="M12.1504 174.992L149.655 198.783V116.138L12.1504 94.225V174.992Z" fill="url(#paint2_linear_47_207)"/>
<path fill-rule="evenodd" clip-rule="evenodd" d="M12.2901 90.5755L149.655 112.625C150.448 99.8295 154.019 67.0202 167.781 61.6624L30.901 41C15.8898 45.897 12.8794 79.3661 12.2901 90.5755Z" fill="url(#paint3_linear_47_207)"/>
<path fill-rule="evenodd" clip-rule="evenodd" d="M12.2901 90.5755L149.655 112.625C150.448 99.8295 154.019 67.0202 167.781 61.6624L30.901 41C15.8898 45.897 12.8794 79.3661 12.2901 90.5755Z" fill="url(#paint4_linear_47_207)"/>
<path d="M12.1504 94.225L149.655 116.138C149.655 116.138 149.442 116.07 149.655 112.625L12.2901 90.5755C12.1698 92.8643 12.1504 94.225 12.1504 94.225Z" fill="white"/>
<path fill-rule="evenodd" clip-rule="evenodd" d="M149.655 112.625L189.138 90.8263C188.6 83.2492 186.202 61.071 172.156 61.0415C170.591 61.0382 169.136 61.135 167.781 61.6624C154.019 67.0202 150.448 99.8295 149.655 112.625Z" fill="url(#paint5_linear_47_207)"/>
<path fill-rule="evenodd" clip-rule="evenodd" d="M149.655 112.625L189.138 90.8263C188.6 83.2492 186.202 61.071 172.156 61.0415C170.591 61.0382 169.136 61.135 167.781 61.6624C154.019 67.0202 150.448 99.8295 149.655 112.625Z" fill="url(#paint6_linear_47_207)"/>
<path d="M149.655 116.138L189.657 94.225C189.657 94.225 189.242 92.3041 189.138 90.8263L149.655 112.625C149.442 116.07 149.655 116.138 149.655 116.138Z" fill="white"/>
</g>
<path d="M149.655 198.783L12.1504 174.992V94.225M149.655 198.783V116.138M149.655 198.783L189.657 176.87V94.225M149.655 116.138L12.1504 94.225M149.655 116.138L189.657 94.225M149.655 116.138C149.655 116.138 149.442 116.07 149.655 112.625M12.1504 94.225C12.1504 94.225 12.1698 92.8643 12.2901 90.5755M189.657 94.225C189.657 94.225 189.242 92.3041 189.138 90.8263M167.781 61.6624C169.136 61.135 170.591 61.0382 172.156 61.0415C186.202 61.071 188.6 83.2492 189.138 90.8263M167.781 61.6624L30.901 41C15.8898 45.897 12.8794 79.3661 12.2901 90.5755M167.781 61.6624C154.019 67.0202 150.448 99.8295 149.655 112.625M12.2901 90.5755L149.655 112.625M149.655 112.625L189.138 90.8263" stroke="black" stroke-width="1.95062" stroke-linecap="round"/>
<path d="M12.1504 174.908L149.173 198.783V171.275L12.1504 147.4V174.908Z" fill="url(#paint7_linear_47_207)"/>
<path d="M12.1504 174.908L149.173 198.783V171.275L12.1504 147.4V174.908Z" fill="url(#paint8_linear_47_207)"/>
<path d="M12.1504 174.908L149.173 198.783V171.275L12.1504 147.4V174.908Z" stroke="black" stroke-width="1.95062" stroke-linecap="round"/>
<path d="M12.1504 145.843L149.173 169.718V142.21L12.1504 118.335V145.843Z" fill="url(#paint9_linear_47_207)"/>
<path d="M12.1504 145.843L149.173 169.718V142.21L12.1504 118.335V145.843Z" fill="url(#paint10_linear_47_207)"/>
<path d="M12.1504 145.843L149.173 169.718V142.21L12.1504 118.335V145.843Z" stroke="black" stroke-width="1.95062" stroke-linecap="round"/>
<path d="M12.1504 116.778L149.173 140.653V116.778L12.1504 94.9785V116.778Z" fill="url(#paint11_linear_47_207)" stroke="black" stroke-width="1.95062" stroke-linecap="round"/>
<path d="M189.656 178.022L150.21 198.264V171.058L189.656 149.995V178.022Z" fill="url(#paint12_linear_47_207)"/>
<path d="M189.656 178.022L150.21 198.264V171.058L189.656 149.995V178.022Z" fill="url(#paint13_linear_47_207)"/>
<path d="M189.656 178.022L150.21 198.264V171.058L189.656 149.995V178.022Z" stroke="black" stroke-width="1.95062" stroke-linecap="round"/>
<path d="M189.656 148.772L149.668 169.957V142.432L189.656 121.463V148.772Z" fill="url(#paint14_linear_47_207)"/>
<path d="M189.656 148.772L149.668 169.957V142.432L189.656 121.463V148.772Z" fill="url(#paint15_linear_47_207)"/>
<path d="M189.656 148.772L149.668 169.957V142.432L189.656 121.463V148.772Z" fill="url(#paint16_linear_47_207)"/>
<path d="M189.656 148.772L149.668 169.957V142.432L189.656 121.463V148.772Z" stroke="black" stroke-width="1.95062" stroke-linecap="round"/>
<path d="M189.656 120L150.21 140.969V116.56L189.656 95.4976V120Z" fill="url(#paint17_linear_47_207)"/>
<path d="M189.656 120L150.21 140.969V116.56L189.656 95.4976V120Z" fill="url(#paint18_linear_47_207)"/>
<path d="M189.656 120L150.21 140.969V116.56L189.656 95.4976V120Z" fill="url(#paint19_linear_47_207)"/>
<path d="M189.656 120L150.21 140.969V116.56L189.656 95.4976V120Z" stroke="black" stroke-width="1.95062" stroke-linecap="round"/>
<g style="mix-blend-mode:color-dodge" opacity="0.2">
<path d="M12.1504 178.384L153.136 202.778V114.439C153.949 101.319 157.61 67.6789 171.721 62.1855L31.3757 41C15.9844 46.021 12.8979 80.3374 12.2936 91.8306L12.1504 178.384Z" fill="url(#paint20_linear_47_207)"/>
<path d="M153.136 202.778L194.15 180.31V95.5725C194.15 95.5725 193.726 93.6029 193.618 92.0877C193.067 84.3188 190.608 61.5791 176.207 61.5489C174.603 61.5455 173.11 61.6448 171.721 62.1855C157.61 67.6789 153.949 101.319 153.136 114.439V202.778Z" fill="url(#paint21_linear_47_207)"/>
</g>
<g filter="url(#filter1_d_47_207)">
<path d="M67.168 146.249V123.209C67.168 122.011 68.2367 121.097 69.4197 121.282L82.1272 123.267C83.0768 123.415 83.7767 124.233 83.7767 125.194V148.235C83.7767 149.432 82.708 150.347 81.525 150.162L68.8174 148.177C67.8679 148.028 67.168 147.21 67.168 146.249Z" fill="url(#paint22_linear_47_207)"/>
<path d="M66.1927 123.209V146.249C66.1927 147.691 67.2426 148.918 68.6669 149.14L81.3744 151.126C83.1489 151.403 84.752 150.031 84.752 148.235V125.194C84.752 123.753 83.7021 122.526 82.2778 122.303L69.5703 120.318C67.7958 120.041 66.1927 121.413 66.1927 123.209Z" stroke="black" stroke-width="1.95062" stroke-linecap="round"/>
</g>
<g style="mix-blend-mode:color-dodge" opacity="0.8">
<path d="M67.168 146.249V123.209C67.168 122.011 68.2367 121.097 69.4197 121.282L82.1272 123.267C83.0768 123.415 83.7767 124.233 83.7767 125.194V148.235C83.7767 149.432 82.708 150.347 81.525 150.162L68.8174 148.177C67.8679 148.028 67.168 147.21 67.168 146.249Z" fill="url(#paint23_linear_47_207)"/>
</g>
<path opacity="0.2" d="M149.669 198.512L148.693 114.148C148.693 114.148 134.841 155.075 117.971 168.278C99.8318 182.474 58.9648 183.395 58.9648 183.395L149.669 198.512Z" fill="black"/>
<path opacity="0.2" d="M149.669 199L150.172 114.148C150.172 114.148 159.084 147.464 167.79 160.743C177.153 175.021 189.656 177.543 189.656 177.543L149.669 199Z" fill="black"/>
<defs>
<filter id="filter0_ii_47_207" x="11.1748" y="40.0012" width="179.457" height="166.628" filterUnits="userSpaceOnUse" color-interpolation-filters="sRGB">
<feFlood flood-opacity="0" result="BackgroundImageFix"/>
<feBlend mode="normal" in="SourceGraphic" in2="BackgroundImageFix" result="shape"/>
<feColorMatrix in="SourceAlpha" type="matrix" values="0 0 0 0 0 0 0 0 0 0 0 0 0 0 0 0 0 0 127 0" result="hardAlpha"/>
<feOffset dy="6.82716"/>
<feGaussianBlur stdDeviation="6.33951"/>
<feComposite in2="hardAlpha" operator="arithmetic" k2="-1" k3="1"/>
<feColorMatrix type="matrix" values="0 0 0 0 1 0 0 0 0 1 0 0 0 0 1 0 0 0 0.61 0"/>
<feBlend mode="normal" in2="shape" result="effect1_innerShadow_47_207"/>
<feColorMatrix in="SourceAlpha" type="matrix" values="0 0 0 0 0 0 0 0 0 0 0 0 0 0 0 0 0 0 127 0" result="hardAlpha"/>
<feOffset dy="6.82716"/>
<feGaussianBlur stdDeviation="1.46296"/>
<feComposite in2="hardAlpha" operator="arithmetic" k2="-1" k3="1"/>
<feColorMatrix type="matrix" values="0 0 0 0 1 0 0 0 0 1 0 0 0 0 1 0 0 0 0.61 0"/>
<feBlend mode="normal" in2="effect1_innerShadow_47_207" result="effect2_innerShadow_47_207"/>
</filter>
<filter id="filter1_d_47_207" x="64.2425" y="117.356" width="24.411" height="36.7316" filterUnits="userSpaceOnUse" color-interpolation-filters="sRGB">
<feFlood flood-opacity="0" result="BackgroundImageFix"/>
<feColorMatrix in="SourceAlpha" type="matrix" values="0 0 0 0 0 0 0 0 0 0 0 0 0 0 0 0 0 0 127 0" result="hardAlpha"/>
<feOffset dx="0.975309"/>
<feGaussianBlur stdDeviation="0.975309"/>
<feComposite in2="hardAlpha" operator="out"/>
<feColorMatrix type="matrix" values="0 0 0 0 0 0 0 0 0 0 0 0 0 0 0 0 0 0 1 0"/>
<feBlend mode="normal" in2="BackgroundImageFix" result="effect1_dropShadow_47_207"/>
<feBlend mode="normal" in="SourceGraphic" in2="effect1_dropShadow_47_207" result="shape"/>
</filter>
<linearGradient id="paint0_linear_47_207" x1="0.15039" y1="185" x2="33.1504" y2="109" gradientUnits="userSpaceOnUse">
<stop/>
<stop offset="1" stop-color="#D9D9D9" stop-opacity="0"/>
</linearGradient>
<linearGradient id="paint1_linear_47_207" x1="-10.8496" y1="192.5" x2="88.1504" y2="200" gradientUnits="userSpaceOnUse">
<stop/>
<stop offset="1" stop-color="#D9D9D9" stop-opacity="0"/>
</linearGradient>
<linearGradient id="paint2_linear_47_207" x1="107.132" y1="50.3424" x2="114.917" y2="140.653" gradientUnits="userSpaceOnUse">
<stop stop-color="#D9A900"/>
<stop offset="1" stop-color="#423300"/>
</linearGradient>
<linearGradient id="paint3_linear_47_207" x1="107.132" y1="50.3424" x2="114.917" y2="140.653" gradientUnits="userSpaceOnUse">
<stop stop-color="#D9A900"/>
<stop offset="1" stop-color="#423300"/>
</linearGradient>
<linearGradient id="paint4_linear_47_207" x1="100.903" y1="41" x2="196.674" y2="105.499" gradientUnits="userSpaceOnUse">
<stop stop-color="#CBA977"/>
<stop offset="0.46875" stop-color="#9D713C"/>
<stop offset="1" stop-color="#A4774D"/>
</linearGradient>
<linearGradient id="paint5_linear_47_207" x1="107.132" y1="50.3424" x2="114.917" y2="140.653" gradientUnits="userSpaceOnUse">
<stop stop-color="#D9A900"/>
<stop offset="1" stop-color="#423300"/>
</linearGradient>
<linearGradient id="paint6_linear_47_207" x1="100.903" y1="41" x2="196.674" y2="105.499" gradientUnits="userSpaceOnUse">
<stop stop-color="#CBA977"/>
<stop offset="0.46875" stop-color="#9D713C"/>
<stop offset="1" stop-color="#A4774D"/>
</linearGradient>
<linearGradient id="paint7_linear_47_207" x1="80.6615" y1="147.4" x2="80.6615" y2="198.783" gradientUnits="userSpaceOnUse">
<stop stop-color="#D9A900"/>
<stop offset="1" stop-color="#423300"/>
</linearGradient>
<linearGradient id="paint8_linear_47_207" x1="80.6615" y1="147.4" x2="110.945" y2="195.744" gradientUnits="userSpaceOnUse">
<stop stop-color="#CBA977"/>
<stop offset="0.46875" stop-color="#9D713C"/>
<stop offset="1" stop-color="#A4774D"/>
</linearGradient>
<linearGradient id="paint9_linear_47_207" x1="80.6615" y1="118.335" x2="80.6615" y2="169.718" gradientUnits="userSpaceOnUse">
<stop stop-color="#D9A900"/>
<stop offset="1" stop-color="#423300"/>
</linearGradient>
<linearGradient id="paint10_linear_47_207" x1="80.6615" y1="118.335" x2="110.945" y2="166.679" gradientUnits="userSpaceOnUse">
<stop stop-color="#CBA977"/>
<stop offset="0.46875" stop-color="#9D713C"/>
<stop offset="1" stop-color="#A4774D"/>
</linearGradient>
<linearGradient id="paint11_linear_47_207" x1="80.6615" y1="94.9785" x2="106.094" y2="140.653" gradientUnits="userSpaceOnUse">
<stop stop-color="#CBA977"/>
<stop offset="0.46875" stop-color="#9D713C"/>
<stop offset="1" stop-color="#A4774D"/>
</linearGradient>
<linearGradient id="paint12_linear_47_207" x1="169.933" y1="149.995" x2="169.933" y2="198.264" gradientUnits="userSpaceOnUse">
<stop stop-color="#D9A900"/>
<stop offset="1" stop-color="#423300"/>
</linearGradient>
<linearGradient id="paint13_linear_47_207" x1="169.933" y1="149.995" x2="144.972" y2="162.206" gradientUnits="userSpaceOnUse">
<stop stop-color="#CBA977"/>
<stop offset="0.46875" stop-color="#9D713C"/>
<stop offset="1" stop-color="#A4774D"/>
</linearGradient>
<linearGradient id="paint14_linear_47_207" x1="169.391" y1="120.975" x2="169.391" y2="169.244" gradientUnits="userSpaceOnUse">
<stop stop-color="#D9A900"/>
<stop offset="1" stop-color="#423300"/>
</linearGradient>
<linearGradient id="paint15_linear_47_207" x1="169.391" y1="120.975" x2="144.43" y2="133.187" gradientUnits="userSpaceOnUse">
<stop stop-color="#77BFCB"/>
<stop offset="0.46875" stop-color="#3C939D"/>
<stop offset="1" stop-color="#4D98A4"/>
</linearGradient>
<linearGradient id="paint16_linear_47_207" x1="169.662" y1="121.463" x2="144.447" y2="133.91" gradientUnits="userSpaceOnUse">
<stop stop-color="#CBA977"/>
<stop offset="0.46875" stop-color="#9D713C"/>
<stop offset="1" stop-color="#A4774D"/>
</linearGradient>
<linearGradient id="paint17_linear_47_207" x1="169.933" y1="95.4976" x2="169.933" y2="143.767" gradientUnits="userSpaceOnUse">
<stop stop-color="#D9A900"/>
<stop offset="1" stop-color="#423300"/>
</linearGradient>
<linearGradient id="paint18_linear_47_207" x1="169.933" y1="95.4976" x2="144.972" y2="107.709" gradientUnits="userSpaceOnUse">
<stop stop-color="#77BFCB"/>
<stop offset="0.46875" stop-color="#3C939D"/>
<stop offset="1" stop-color="#4D98A4"/>
</linearGradient>
<linearGradient id="paint19_linear_47_207" x1="169.933" y1="95.4976" x2="145.569" y2="108.15" gradientUnits="userSpaceOnUse">
<stop stop-color="#CBA977"/>
<stop offset="0.46875" stop-color="#9D713C"/>
<stop offset="1" stop-color="#A4774D"/>
</linearGradient>
<linearGradient id="paint20_linear_47_207" x1="149.981" y1="128.807" x2="20.665" y2="118.164" gradientUnits="userSpaceOnUse">
<stop stop-color="#F4F4F4"/>
<stop offset="1" stop-color="#414141"/>
</linearGradient>
<linearGradient id="paint21_linear_47_207" x1="149.981" y1="128.807" x2="212.244" y2="124.018" gradientUnits="userSpaceOnUse">
<stop stop-color="#F4F4F4"/>
<stop offset="1" stop-color="#414141"/>
</linearGradient>
<linearGradient id="paint22_linear_47_207" x1="66.2803" y1="117.562" x2="80.9099" y2="150.235" gradientUnits="userSpaceOnUse">
<stop stop-color="#FFE600"/>
<stop offset="1" stop-color="#FFF9BE"/>
</linearGradient>
<linearGradient id="paint23_linear_47_207" x1="66.2803" y1="117.562" x2="80.9099" y2="150.235" gradientUnits="userSpaceOnUse">
<stop stop-color="#313131"/>
<stop offset="0.53177" stop-color="#C8C8C8"/>
<stop offset="0.642286" stop-color="#444444"/>
</linearGradient>
</defs>
</svg>
